<svg width="80" height="80" viewBox="0 0 80 80" fill="none" xmlns="http://www.w3.org/2000/svg">
<g clip-path="url(#clip0_21980_4808)">
<path d="M2.68848 31.7305C2.68848 31.7305 10.7097 50.5039 39.5836 50.5039C68.4575 50.5039 76.6125 31.7274 76.6125 31.7274C72.218 15.4306 57.3364 3.43689 39.651 3.43689C21.9644 3.43689 7.08191 15.4322 2.68848 31.7305Z" fill="#FFDD40"/>
<path d="M39.8543 5.17969C39.6167 5.29094 34.7678 7.63953 38.6223 12.482C38.6854 12.5613 38.7464 12.6447 38.8057 12.7317C39.5612 12.8723 40.3439 12.8236 41.0789 12.5791C42.5156 12.1012 44.7685 11.6228 46.6053 12.4492C48.767 13.4219 48.5193 16.3309 48.3999 17.9777C48.3584 18.5502 48.4945 19.1244 48.804 19.6098C48.9867 19.8964 49.1317 20.668 49.2467 20.9681C49.3896 21.3412 49.8031 21.7266 49.866 22.118C50.1979 21.9572 50.6721 21.782 51.0778 21.8394C51.1274 20.118 51.2864 17.7944 51.2864 17.7944C52.987 9.46484 46.2537 5.32953 39.8543 5.17969Z" fill="#D1714B"/>
<path d="M37.4902 5.30923C31.0348 6.18876 30.4212 9.84892 30.4183 11.1917C30.4177 11.4733 30.2618 11.7344 30.0085 11.8575C26.6505 13.4911 28.461 21.8316 28.461 21.8316C28.7982 21.8541 29.1512 21.9906 29.4144 22.1181C29.4786 21.7153 29.5853 21.3205 29.7327 20.9402C29.846 20.6492 30.2993 19.8877 30.4763 19.61C30.7822 19.1283 30.9243 18.5607 30.8815 17.9917C30.7607 16.3492 30.5071 13.4247 32.6751 12.4492C34.5116 11.6228 36.7648 12.1014 38.2015 12.5791C38.6137 12.7149 39.0432 12.7911 39.4769 12.8053C39.4053 12.6941 39.3285 12.5862 39.2468 12.482C35.5491 7.83642 39.8619 5.48564 40.4287 5.20408C39.4368 5.14408 38.4465 5.17892 37.4902 5.30923Z" fill="#BC6242"/>
<path d="M45.4531 36.5731C45.0256 37.0111 44.569 37.4195 44.0862 37.7956C42.8141 38.7818 41.2499 39.3166 39.6403 39.3156C39.4096 39.3156 39.1803 39.3034 38.9523 39.2817C38.8896 40.6439 38.6267 42.7825 37.6507 44.2158C37.6417 44.2291 37.6301 44.2423 37.6201 44.2555H42.0286C42.0837 44.1136 42.166 43.9838 42.2709 43.8734L46.4046 39.5517C46.4705 39.4833 46.5458 39.4246 46.6282 39.3773C45.905 38.4525 45.587 37.2794 45.4531 36.5731Z" fill="#FFAA7B"/>
<path d="M37.9628 44.2158C38.9333 42.7905 39.1987 40.6678 39.2633 39.3045C37.7852 39.228 36.3633 38.7036 35.1939 37.7955C34.723 37.4285 34.2769 37.0308 33.8586 36.6049C33.7219 37.3108 33.4048 38.4555 32.6992 39.3649C32.79 39.4141 32.8727 39.4772 32.9442 39.5517L37.078 43.8735C37.1828 43.9839 37.2652 44.1136 37.3205 44.2555H37.932C37.9422 44.2424 37.9537 44.2291 37.9628 44.2158Z" fill="#FC9460"/>
<path d="M42.0282 45.1245H37.321C37.0154 45.9588 36.3563 47.3036 35.0869 48.2413C36.21 50.2959 37.3425 52.0699 38.2639 53.4181C38.788 54.1858 39.2184 55.0133 39.5461 55.8831C39.8738 55.0134 40.3042 54.1858 40.8282 53.4181C41.7703 52.0394 42.9333 50.2152 44.0813 48.1014C42.9296 47.1738 42.3189 45.9181 42.0282 45.1245Z" fill="#49B1F7"/>
<path d="M41.9479 45.0889C41.8922 44.9349 41.8691 44.7709 41.8802 44.6075C41.8913 44.4441 41.9364 44.2847 42.0125 44.1397H37.3362C37.4123 44.2847 37.4573 44.4441 37.4685 44.6075C37.4796 44.7709 37.4565 44.9349 37.4007 45.0889C37.2276 45.5674 37.008 46.0278 36.7451 46.4634L38.1411 48.3431H41.1392L42.5728 46.4126C42.3234 45.992 42.1142 45.5488 41.9479 45.0889Z" fill="#4F71B6"/>
<path d="M20.6295 5.39125C17.7743 3.32906 15.4909 2.34844 13.1773 2.44953C12.771 2.93703 11.6851 4.40828 11.7988 6.08344C11.8651 7.06 12.3285 7.9314 13.1773 8.67656C13.1262 8.75474 13.0821 8.83718 13.0452 8.92297C14.9154 8.82609 16.8195 9.32609 18.334 10.4247C18.9621 10.8803 19.4632 11.6003 19.763 12.4756L20.1527 13.9903L20.9816 15.8517C21.2435 15.6741 21.789 15.5225 22.1782 15.6731L22.1785 15.6725L22.5534 9.84687C22.7113 8.16781 21.9802 6.36703 20.6295 5.39125Z" fill="#3C58A0"/>
<path d="M8.66628 10.4249C10.0089 9.45095 11.656 8.94845 13.3138 8.91345C13.3652 8.81621 13.4277 8.72529 13.5002 8.64251C10.186 5.96204 13.49 2.44704 13.4957 2.44095C11.296 2.44251 9.09378 3.4247 6.37097 5.39142C5.02019 6.36704 4.28893 8.16782 4.44706 9.84704L4.8219 15.6727L4.82222 15.6733C5.21144 15.5227 5.7569 15.6742 6.01862 15.8519L6.84737 13.9905L7.2369 12.4759C7.53706 11.6005 8.03815 10.8805 8.66628 10.4249Z" fill="#2A428C"/>
<path d="M19.7631 12.2083C19.4633 11.333 18.9623 10.613 18.334 10.1572C16.8473 9.07875 14.9851 8.57625 13.1481 8.64984C13.158 8.65859 13.1673 8.66765 13.1773 8.6764C12.9501 9.0225 12.7787 9.57797 13.1333 10.1152C12.9604 10.2065 12.7907 10.3038 12.6245 10.4069C14.6259 10.2523 16.7042 10.6283 18.334 11.5375C18.9622 11.888 19.4633 12.4419 19.7631 13.1152L20.3156 14.3559L19.7631 12.2083Z" fill="#6289CC"/>
<path d="M8.66613 11.5378C9.96113 10.8153 11.541 10.4289 13.1408 10.3786C13.3599 10.2583 13.5 10.1944 13.5 10.1944C12.7475 9.44202 13.4997 8.6428 13.5 8.64249C11.7799 8.64249 10.0593 9.14702 8.66629 10.1573C8.03816 10.613 7.53707 11.3331 7.23723 12.2084L6.68457 14.3562L7.23691 13.1156C7.53691 12.4422 8.03801 11.8883 8.66613 11.5378Z" fill="#4F71B6"/>
<path d="M22.2529 15.5311C21.8872 15.1959 21.1586 15.3658 20.8438 15.5711C20.9129 16.0008 20.9168 16.4403 20.8571 16.8744L20.4854 19.5814C20.4854 19.7997 20.4785 20.0137 20.4658 20.2241C21.3721 20.4973 21.8224 19.6837 21.8982 19.1255C21.9308 18.8851 21.9843 18.6481 22.0582 18.417C22.2993 17.6639 23.1689 16.3708 22.2529 15.5311Z" fill="#E58B6C"/>
<path d="M4.73802 15.5311C5.10381 15.1959 5.83224 15.3658 6.14709 15.5711C6.07837 16.0025 6.07389 16.4417 6.13381 16.8744L6.50552 19.5814C6.50552 19.7997 6.5124 20.0137 6.52506 20.2241C5.61881 20.4973 5.16849 19.6837 5.09271 19.1255C5.06009 18.8851 5.00656 18.6481 4.93271 18.417C4.69146 17.6639 3.82177 16.3708 4.73802 15.5311Z" fill="#D1714B"/>
<path d="M20.9307 15.5594L20.0509 13.5836L19.7631 12.9372C19.4633 12.2639 18.9623 11.71 18.334 11.3595C16.7959 10.5014 14.8584 10.1184 12.9629 10.208C12.0926 10.6934 10.2478 11.9253 10.2478 13.647C10.2478 13.7414 10.2468 13.8534 10.2459 13.9816C10.2328 15.7152 10.3209 17.2953 10.5068 18.7252C12.8631 17.8038 15.9153 18.0234 17.9386 19.3855C17.9604 19.4002 17.9823 19.415 18.0042 19.4302C18.7156 19.9183 19.559 20.4003 20.5001 20.8294C20.5479 20.4284 20.5748 20.0131 20.5748 19.5816L20.9465 16.8745C21.0069 16.4378 21.0015 15.9945 20.9307 15.5594Z" fill="#F2A08B"/>
<path d="M9.23237 19.3852C9.68206 19.0825 10.1827 18.8364 10.715 18.6464C10.4246 16.3934 10.4821 14.4266 10.4821 13.6467C10.4821 11.5673 13.5002 10.1942 13.5002 10.1942L13.5 10.1941C11.7789 10.1942 10.0582 10.5828 8.66644 11.3594C8.03815 11.7098 7.53722 12.2637 7.23737 12.9372L6.94972 13.5833L6.05706 15.588C5.99048 16.0136 5.98643 16.4468 6.04503 16.8736L6.41675 19.5811C6.41675 20.0402 6.44659 20.4811 6.5005 20.9053C7.51034 20.4575 8.41269 19.9469 9.1669 19.4295L9.23237 19.3852ZM18.8036 28.7356C18.1105 28.0425 17.8247 27.0241 17.7121 26.4364C17.4045 26.7506 17.0762 27.0438 16.7294 27.3141C15.8201 28.0186 14.7053 28.4064 13.555 28.4183C13.4713 29.8369 13.0716 32.8963 11.2297 35.185C11.1585 35.1777 11.0869 35.1732 11.0153 35.1716C12.3299 36.9138 13.4772 37.9094 13.4941 37.9333C13.5035 37.92 17.5505 34.3242 19.1517 29.077C19.1522 29.0753 19.1533 29.0741 19.1538 29.0723C19.0348 28.9625 18.918 28.8502 18.8036 28.7356Z" fill="#E58B6C"/>
<path d="M13.4955 28.4195C12.3248 28.4202 11.1872 28.0313 10.2619 27.3141C9.91515 27.0438 9.58687 26.7506 9.27928 26.4364C9.16662 27.0241 8.881 28.0425 8.18771 28.7356C8.07324 28.8502 7.95645 28.9625 7.8374 29.0723C7.83787 29.0741 7.83896 29.0753 7.83959 29.077C8.64459 31.7152 10.0144 33.8855 11.2046 35.4183C11.2818 35.4262 11.328 35.435 11.328 35.435C13.3012 33.0628 13.7107 29.8672 13.7919 28.4102C13.6932 28.4156 13.5946 28.4195 13.4955 28.4195Z" fill="#D1714B"/>
<path d="M30.5842 35.7967C30.4056 35.1228 30.0557 34.5066 29.5683 34.008C29.0809 33.5095 28.4728 33.1456 27.8031 32.9519C25.4093 32.2578 22.9884 31.2083 21.5882 30.5594C19.6624 36.1594 15.7015 39.6306 15.6288 39.7313L15.631 39.733L14.0088 41.3919C13.9179 41.4839 13.7958 41.5387 13.6666 41.5454C13.5374 41.5522 13.4103 41.5105 13.3103 41.4284C13.1965 41.29 11.0709 39.8034 8.90869 37.0059C8.90275 37.0586 8.89604 37.1106 8.8926 37.1655C8.03619 37.1472 5.16479 37.2455 2.97525 39.2661C2.31244 39.878 1.77869 40.6091 1.37182 41.4525C1.37119 41.5413 1.36963 41.6295 1.36963 41.7184C1.36963 52.6681 5.96885 62.5417 13.3385 69.5191C13.9054 60.9427 15.4599 53.9311 16.4767 50.0831C16.9746 48.1983 18.4276 46.715 20.3001 46.172C23.276 45.3092 26.2828 44.0466 28.2546 43.153L31.8404 41.5289C31.4157 39.1455 30.9517 37.1874 30.5842 35.7967Z" fill="#3C58A0"/>
<path d="M9.11932 37.4102C9.11932 37.3642 9.12166 37.3214 9.12322 37.2775C7.75666 35.5606 6.34932 33.3195 5.40275 30.5594C4.50866 30.9739 3.60365 31.3644 2.68869 31.7305C1.83025 34.915 1.36963 38.2627 1.36963 41.7184C1.36963 41.8219 1.37291 41.9245 1.37369 42.0278C3.42697 36.955 9.11932 37.4102 9.11932 37.4102Z" fill="#2A428C"/>
<path d="M21.5903 29.8742C20.6189 29.435 20.002 29.1209 20.002 29.1209C20.002 29.1209 19.8603 29.0645 19.588 28.8739C19.3986 28.7414 19.1341 28.8302 19.0666 29.0513C18.6064 30.5594 17.1375 34.4197 13.4062 37.8947C13.8225 38.2918 14.2545 38.672 14.7012 39.0344L15.6678 39.8175C19.462 36.1911 21.1252 32.275 21.7733 30.2892C21.7993 30.2097 21.795 30.1233 21.7613 30.0467C21.7275 29.9701 21.6666 29.9087 21.5903 29.8742Z" fill="#4F71B6"/>
<path d="M15.9146 28.0092C16.2014 27.8623 16.4742 27.6893 16.7293 27.4923C18.3283 26.2506 20.1811 23.9666 20.5199 20.6602C19.5707 20.2288 18.7207 19.7431 18.0041 19.2516C17.9822 19.2366 17.9604 19.2216 17.9385 19.2069C15.9091 17.8408 12.8446 17.6236 10.4854 18.5547C11.1043 23.5639 12.9218 26.7323 15.9146 28.0092Z" fill="#E9EFFF"/>
<path d="M10.262 27.4924C11.9839 28.8295 14.3398 28.9459 16.1755 27.863C12.4139 26.36 11.1277 22.0295 10.6939 18.4761C10.1694 18.665 9.67594 18.9083 9.23234 19.2069C9.21047 19.2216 9.18859 19.2366 9.16672 19.2516C8.4075 19.7724 7.49844 20.2864 6.48047 20.7364C6.83969 24.0014 8.67531 26.2602 10.262 27.4924Z" fill="#D3DCFB"/>
<path d="M65.4553 10.0281C65.3284 10.1908 65.0545 10.6 65.0924 11.0586C65.1176 11.3636 65.2699 11.6277 65.5451 11.8433C66.121 12.2947 69.7215 18.8341 72.0037 23.1239C72.0717 23.2733 72.8693 24.948 74.6142 25.4527C75.8179 25.8013 77.1645 25.5016 78.6179 24.5666C78.6258 24.4712 78.6298 24.3756 78.6301 24.2799C78.6301 23.2228 78.172 22.2709 77.4399 21.6042C76.5396 20.7842 76.3296 19.6074 76.6521 18.6456C77.8526 15.0655 75.1626 13.767 73.4328 9.2822C71.9285 5.38236 67.6729 5.62892 66.296 5.81939C66.1338 5.8414 65.9701 5.85081 65.8064 5.84751C65.689 5.84954 65.572 5.84329 65.4551 5.83267V10.0281H65.4553Z" fill="#6E5D76"/>
<path d="M72.2143 23.0206C72.2143 23.0206 66.5143 12.305 65.6898 11.6589C64.8652 11.0127 65.6898 10.1124 65.6898 10.1124V5.84533C65.5651 5.84426 65.4406 5.83559 65.317 5.81939C63.9403 5.62892 59.6845 5.38236 58.1803 9.2822C56.4503 13.767 53.7604 15.0655 54.9609 18.6456C55.2834 19.6075 55.0734 20.7842 54.1731 21.6042C53.441 22.271 52.9829 23.2228 52.9829 24.2799C52.9829 24.9708 53.1787 25.6167 53.5187 26.1675C53.9451 26.8581 54.1418 27.6652 54.0518 28.4677C53.9356 29.5041 54.1213 30.6749 54.9934 31.7939H65.8063L76.6124 31.7274C77.4845 30.6084 77.6773 29.5042 77.561 28.4678C77.471 27.6653 77.6677 26.8583 78.0942 26.1677C78.445 25.6006 78.6306 24.9468 78.6299 24.28C74.1151 27.2999 72.2143 23.0206 72.2143 23.0206Z" fill="#56415E"/>
<path d="M64.1346 37.6189L64.1074 37.6762L64.1129 37.7394C64.1149 37.7625 64.1198 37.817 64.1274 37.898C64.6837 37.953 65.2437 37.9837 65.8066 37.9837C67.8048 37.9837 69.7712 37.6328 71.623 36.9661L72.9529 29.9061C72.6071 29.7012 72.2658 29.4888 71.9293 29.2691C70.9437 28.6236 70.2516 27.6105 70.0265 26.4541L70.023 26.4362C69.7155 26.7504 69.3872 27.0436 69.0404 27.3139C68.055 28.0778 66.8309 28.4678 65.5852 28.4147C65.5874 30.3017 65.4463 34.8523 64.1346 37.6189Z" fill="#FFAA7B"/>
<path d="M64.3464 37.7192C65.6835 34.8992 65.8246 30.3242 65.8208 28.4192L65.8067 28.4195C64.636 28.4202 63.4984 28.0313 62.5731 27.3141C62.2263 27.0438 61.898 26.7506 61.5905 26.4364L61.5871 26.4542C61.3619 27.6106 60.6699 28.6237 59.6842 29.2692L59.6841 29.2694C59.3475 29.489 59.0063 29.7014 58.6606 29.9064L59.9905 36.9664C61.401 37.4743 62.8718 37.7956 64.3656 37.9222C64.3525 37.7911 64.3464 37.7192 64.3464 37.7192Z" fill="#FC9460"/>
<path d="M64.1129 37.7394C64.147 38.1337 64.9767 47.4244 67.608 49.4736C67.9645 49.7512 68.3425 49.8911 68.735 49.8911L68.7523 49.8909C68.7778 50.2153 68.8478 50.8234 69.0358 51.5392L71.6819 36.6537C69.8135 37.4023 67.8193 37.7872 65.8065 37.7877C65.237 37.7877 64.6706 37.7556 64.1089 37.6948L64.1129 37.7394Z" fill="#49B1F7"/>
<path d="M65.8065 65.7523H66.509L69.1415 50.9431C68.9865 50.178 68.9721 49.6372 68.9721 49.6372C65.4243 50.2148 64.3461 37.7192 64.3461 37.7192C62.8309 37.5782 61.3439 37.2193 59.9312 36.6536L61.6193 47.6583C62.1994 48.3077 62.618 49.085 62.841 49.9267C63.711 53.2195 64.9752 58.8283 65.6772 65.7522H65.8065V65.7523Z" fill="#1E9EF4"/>
<path d="M71.1034 55.0494C72.1539 55.923 73.4942 56.3092 75.0939 56.2059C76.9237 51.7375 77.9327 46.8461 77.9327 41.7184C77.9327 38.2616 77.4717 34.9128 76.6127 31.7273C75.274 31.1825 73.9809 30.5319 72.7456 29.7816L68.8164 50.4576C68.9828 51.6095 69.4998 53.7161 71.1034 55.0494Z" fill="#73C3F9"/>
<path d="M68.9725 49.6372L65.7563 66.5616C65.8476 67.5375 65.9249 68.5148 65.9883 69.493C69.9563 65.7292 73.1174 61.1244 75.1893 55.9648C69.1488 56.4402 68.9725 49.6372 68.9725 49.6372ZM48.1972 40.4966L50.6058 42.1531C50.9164 42.3678 51.1718 42.653 51.3511 42.9853C53.3224 43.8795 56.341 45.1491 59.3307 46.0158C60.5453 46.3685 61.6033 47.1252 62.3297 48.1606L58.8679 29.7812C57.5335 30.5908 56.1338 31.2883 54.6791 31.857C53.6769 32.2489 52.5818 32.6381 51.4925 32.9536C50.824 33.1473 50.2171 33.5108 49.731 34.0089C49.2449 34.507 48.8961 35.1225 48.7186 35.7955C48.4079 36.9716 48.0279 38.5552 47.6611 40.4577C47.8264 40.3786 48.0291 40.3811 48.1972 40.4966Z" fill="#49B1F7"/>
<path d="M64.529 1.50641C64.5213 2.04031 64.7927 2.54328 65.3362 3.00437C65.2499 3.10641 65.1579 3.24312 65.101 3.40547H71.9254C70.6058 1.35734 68.3071 0 65.6896 0C65.5608 0 65.4337 0.0059375 65.3065 0.0123438C65.0054 0.289062 64.5388 0.82625 64.529 1.50641Z" fill="#D3DCFB"/>
<path d="M65.6899 0C63.0725 0 60.7736 1.35734 59.4541 3.40547H65.3532C65.4708 3.14953 65.6899 2.98484 65.6899 2.98484C63.6057 1.44766 65.6899 0 65.6899 0Z" fill="#BEC8F7"/>
<path d="M58.5403 19.6177C58.5403 19.6177 58.0862 16.7436 58.6092 15.032C58.1346 14.7156 57.2178 14.5613 56.8053 14.9644C55.9609 15.7899 56.5796 17.0363 56.8756 17.8236C56.9648 18.059 57.024 18.3047 57.0517 18.5549C57.1093 19.0872 57.3979 19.8661 58.5945 19.8478C58.5765 19.7711 58.5579 19.6956 58.5403 19.6177Z" fill="#FC9460"/>
<path d="M74.9274 14.9644C74.5151 14.5613 73.5982 14.7156 73.1235 15.032C73.6467 16.7436 73.1924 19.6177 73.1924 19.6177C73.1748 19.6956 73.1562 19.7711 73.1382 19.8478C74.3348 19.8661 74.6234 19.0872 74.681 18.5549C74.7076 18.3099 74.7662 18.0653 74.8571 17.8236C75.1531 17.0363 75.7717 15.7899 74.9274 14.9644Z" fill="#FFAA7B"/>
<path d="M72.7301 14.1416C72.5578 13.9474 72.4629 13.7202 72.4559 13.4852C72.4292 12.5902 72.2032 10.3997 70.6851 9.38892C69.6084 8.67188 68.0946 8.67938 66.1859 9.41126C65.9803 9.49033 65.7527 9.49033 65.5471 9.41126C65.4248 9.36438 65.3042 9.32063 65.1849 9.2797C63.6585 10.3483 63.4254 12.4819 63.3973 13.3689C63.3896 13.6091 63.2864 13.8409 63.0982 14.0392C62.0624 15.1331 62.2893 18.3292 62.531 19.645C63.0662 21.8589 63.8415 23.7894 64.8349 25.3828C65.599 26.6084 66.6626 27.6258 67.9506 28.3794C69.2806 27.6263 70.3715 26.5584 71.1365 25.2492C72.0481 23.6894 72.7595 21.7989 73.2517 19.6269C73.4646 18.2725 73.6915 15.225 72.7301 14.1416Z" fill="#FFC7AB"/>
<path d="M64.9029 25.2492C63.9301 23.6889 63.171 21.7986 62.6469 19.6308C62.4104 18.3423 62.1882 15.2128 63.2024 14.1415C63.3865 13.9473 63.4877 13.7203 63.4952 13.4851C63.5236 12.5901 63.7649 10.3997 65.3846 9.38874C65.3972 9.38077 65.411 9.3742 65.4238 9.36639C63.5735 8.68139 62.101 8.68749 61.0477 9.38874C59.5296 10.3995 59.3036 12.5901 59.2769 13.4851C59.2699 13.7203 59.1751 13.9473 59.0026 14.1415C58.0519 15.2128 58.2602 18.3423 58.4819 19.6308C58.973 21.7986 59.6846 23.6889 60.5963 25.2492C61.5218 26.8333 62.9235 28.0651 64.6497 28.812C65.0339 28.9775 65.4478 29.0629 65.8661 29.0629C66.2845 29.0629 66.6984 28.9775 67.0826 28.812C67.4396 28.6572 67.7864 28.4795 68.1205 28.28C66.7838 27.5334 65.684 26.502 64.9029 25.2492Z" fill="#FFAA7B"/>
<path d="M65.3364 3.00436C65.2019 3.16343 65.0524 3.40593 65.0461 3.70077C65.0399 4.00077 65.1775 4.28155 65.4555 4.53655V10.0281C65.3286 10.1908 65.0547 10.6 65.0927 11.0586C65.1113 11.2834 65.1994 11.4858 65.3544 11.6631C67.7555 11.6136 70.1382 12.0909 72.335 13.0612C72.7231 13.2326 73.1847 13.2019 73.4952 13.0073C73.6702 12.8979 73.8203 12.7528 73.9355 12.5814C74.0507 12.4101 74.1285 12.2164 74.1638 12.013L75.2511 5.75843C75.5028 4.31015 74.3881 2.98483 72.9181 2.98483H65.3149C65.3227 2.99124 65.3289 2.9978 65.3364 3.00436Z" fill="#E9EFFF"/>
<path d="M65.6897 10.1123V4.42952C64.7681 3.67577 65.6897 2.98483 65.6897 2.98483H58.4614C56.9914 2.98483 55.8765 4.31015 56.1284 5.75843L57.2158 12.013C57.2511 12.2164 57.3289 12.4101 57.4441 12.5814C57.5593 12.7527 57.7093 12.8979 57.8844 13.0073C58.1945 13.2017 58.6561 13.233 59.0445 13.0612C61.1378 12.1364 63.4012 11.6588 65.6897 11.6589C64.8653 11.0125 65.6897 10.1123 65.6897 10.1123Z" fill="#D3DCFB"/>
<path d="M65.6898 10.1122C65.1726 10.1122 64.7495 9.68907 64.7495 9.17188V5.36985C64.7495 4.85266 65.1726 4.42953 65.6898 4.42953C66.207 4.42953 66.6301 4.85266 66.6301 5.36985V9.17188C66.6303 9.68907 66.207 10.1122 65.6898 10.1122Z" fill="#FF4155"/>
<path d="M68.5313 7.27094C68.5313 7.78813 68.1082 8.21125 67.591 8.21125H63.7889C63.2718 8.21125 62.8486 7.78813 62.8486 7.27094C62.8486 6.75375 63.2718 6.33063 63.7889 6.33063H67.591C68.1082 6.33047 68.5313 6.7536 68.5313 7.27094Z" fill="#FF7186"/>
<path d="M14.701 38.8656C13.3658 37.7845 12.1663 36.5458 11.1285 35.1767C10.7759 35.1537 10.1099 35.1795 9.58727 35.6103C9.17758 35.9478 8.94664 36.4573 8.89648 37.1256C10.0522 38.6176 11.3768 39.9706 12.844 41.1576L13.2532 41.497C13.3702 41.5941 13.5194 41.6436 13.6711 41.6357C13.8229 41.6278 13.9662 41.5631 14.0724 41.4544L15.7626 39.7261L14.701 38.8656Z" fill="#6289CC"/>
<path d="M11.3277 35.435C9.2241 32.7469 8.27754 30.2074 7.92472 29.0511C7.85722 28.83 7.59269 28.7413 7.40332 28.8738C7.13097 29.0645 6.98925 29.1209 6.98925 29.1209C6.98925 29.1209 6.37254 29.435 5.40113 29.8742C5.3248 29.9086 5.26387 29.97 5.23006 30.0466C5.19626 30.1231 5.19196 30.2095 5.218 30.2891C5.72379 31.8386 6.84769 34.5639 9.11941 37.4097C9.11957 35.0056 11.3277 35.435 11.3277 35.435Z" fill="#4F71B6"/>
<path d="M41.1389 48.343C40.5752 48.343 40.0747 48.0978 39.5727 48.0978C39.1132 48.0978 38.6525 48.343 38.1408 48.343L37.0752 51.6123C37.4608 52.2211 37.857 52.8231 38.2635 53.4181C38.7875 54.1858 39.218 55.0133 39.5457 55.8831C39.8734 55.0134 40.3038 54.1858 40.8277 53.4181C41.2932 52.7366 41.7451 52.0459 42.1833 51.3466L41.1389 48.343Z" fill="#3C58A0"/>
<path d="M43.9892 48.2703C45.2767 45.9186 46.5529 43.1972 47.4859 40.3228C47.5145 40.2341 47.5654 40.1542 47.6338 40.0909C47.7023 40.0276 47.7858 39.9829 47.8765 39.9613L47.597 39.615C47.2171 39.1447 46.5106 39.1148 46.0928 39.5517L41.959 43.8734C41.8074 44.0321 41.7031 44.23 41.6578 44.4447C41.6126 44.6595 41.6283 44.8826 41.7031 45.0889C42.0059 45.9284 42.6762 47.3186 43.9892 48.2703ZM31.6057 40.3228C32.5559 43.2503 33.8623 46.0186 35.1738 48.3998C36.6106 47.4489 37.329 45.9672 37.646 45.0889C37.7208 44.8826 37.7365 44.6595 37.6913 44.4447C37.646 44.23 37.5417 44.0321 37.3901 43.8734L33.2563 39.5517C32.8385 39.1148 32.1318 39.1445 31.7521 39.615L31.3931 40.0402C31.4936 40.1079 31.5685 40.2074 31.6057 40.3228Z" fill="#73C3F9"/>
<path d="M51.6802 21.5955C51.1774 21.1347 50.1758 21.3683 49.7428 21.6505C49.8377 22.2413 49.8431 22.8456 49.7611 23.4425L49.25 27.1644C49.25 27.4644 49.2406 27.7588 49.2231 28.048C50.4692 28.4238 51.0881 27.3052 51.1925 26.5375C51.2374 26.207 51.3108 25.8813 51.4125 25.5634C51.7442 24.528 52.9399 22.7499 51.6802 21.5955Z" fill="#FFAA7B"/>
<path d="M27.5998 21.5955C28.1027 21.1347 29.1042 21.3683 29.5372 21.6505C29.4427 22.2436 29.4365 22.8475 29.5189 23.4425L30.0298 27.1644C30.0298 27.4644 30.0394 27.7588 30.0567 28.048C28.8106 28.4238 28.1917 27.3052 28.0873 26.5375C28.0426 26.207 27.9689 25.8811 27.8673 25.5634C27.5359 24.528 26.3402 22.7499 27.5998 21.5955Z" fill="#FC9460"/>
<path d="M38.9076 58.7222C36.2618 55.7473 32.941 54.4858 31.6016 54.0737C31.431 54.0219 31.2876 53.9051 31.2023 53.7484C31.1171 53.5917 31.0968 53.4078 31.146 53.2364L31.6132 51.5659C31.7026 51.2462 31.6388 50.9112 31.4382 50.6469C31.2376 50.3825 30.9321 50.2308 30.6002 50.2308H30.1243C28.6076 50.4459 23.8965 51.5517 23.8965 56.9736V76.6145C28.5285 78.7089 33.6516 79.9086 39.0462 79.9923V57.6737C38.9842 58.021 38.9379 58.3708 38.9076 58.7222Z" fill="#BEC8F7"/>
<path d="M24.1305 56.9734C24.1305 50.6947 30.5997 50.4145 30.5997 50.4145C30.6163 50.3514 30.6352 50.2939 30.653 50.2337C30.6352 50.2328 30.6177 50.2306 30.5997 50.2306H27.7529C27.5579 50.2306 27.3782 50.1512 27.2469 50.007C27.1157 49.8628 27.0535 49.6764 27.0718 49.4822L27.6407 43.4515C27.6719 43.1203 27.7766 42.8061 27.9421 42.528C25.9702 43.4215 22.9635 44.6842 19.9876 45.547C18.1151 46.09 16.6621 47.5731 16.1641 49.4581C15.1354 53.352 13.5551 60.4844 13.0054 69.2009C16.2428 72.3416 20.0089 74.8863 24.1307 76.7181L24.1305 56.9734Z" fill="#A2B2ED"/>
<path d="M29.7456 65.0436C32.3098 63.9825 33.5283 61.0437 32.4673 58.4795C31.4062 55.9153 28.4673 54.6968 25.9031 55.7578C23.3389 56.8189 22.1204 59.7578 23.1815 62.322C24.2426 64.8861 27.1814 66.1047 29.7456 65.0436Z" fill="#E9EFFF"/>
<path d="M38.2809 53.2272C37.3489 51.8633 36.1978 50.0574 35.0622 47.9647L35.0603 47.9864C34.5017 47.7586 33.2992 47.391 32.1965 47.8728C31.355 48.2406 30.757 49.0216 30.4178 50.1944C30.1873 50.2175 29.7433 50.2758 29.1909 50.4144H30.6003C31.175 50.4144 31.5911 50.9627 31.4362 51.5161L30.969 53.1866C30.9079 53.4042 30.9342 53.637 31.0423 53.8355C31.1504 54.034 31.3317 54.1825 31.5476 54.2492C33.0744 54.7188 36.4469 56.0499 39.0609 59.1817C39.1126 58.0974 39.3172 57.0257 39.6686 55.9986C39.3329 55.0166 38.8661 54.0843 38.2809 53.2272Z" fill="#D3DCFB"/>
<path d="M35.2656 48.3376V48.3369C33.9602 45.9734 32.6567 43.2195 31.711 40.3055C31.5999 39.963 31.191 39.8237 30.8942 40.0278L28.4858 41.6844C28.1968 41.8831 27.955 42.1429 27.7773 42.4453C27.5996 42.7476 27.4905 43.0853 27.4575 43.4345L26.8886 49.4651C26.8772 49.5855 26.8911 49.7069 26.9294 49.8215C26.9677 49.9362 27.0295 50.0416 27.1108 50.1309C27.1922 50.2203 27.2913 50.2917 27.4019 50.3406C27.5124 50.3895 27.632 50.4147 27.7528 50.4147H30.5999C31.6484 46.4051 35.2656 48.3376 35.2656 48.3376Z" fill="#BEC8F7"/>
<path d="M56.0361 60.3011C56.0361 59.7264 56.4167 59.3825 56.7727 59.252C57.1214 59.1245 57.6228 59.1406 57.9853 59.5694C59.1214 60.9127 59.6974 62.5475 59.6974 64.4287V74.3333C62.0831 72.8639 64.3011 71.1381 66.3119 69.1867C65.7614 60.4766 64.1822 53.35 63.1539 49.4581C62.656 47.5734 61.203 46.0902 59.3306 45.5473C56.1863 44.6356 53.0075 43.2778 51.0514 42.3803C51.2733 42.6928 51.4139 43.06 51.451 43.4519L52.0199 49.4825C52.0381 49.6767 51.976 49.8631 51.8447 50.0073C51.7135 50.1516 51.5338 50.2309 51.3388 50.2309H48.4917C48.1599 50.2309 47.8544 50.3827 47.6538 50.647C47.4531 50.9114 47.3894 51.2464 47.4788 51.5661L47.946 53.2366C47.9953 53.408 47.9751 53.5919 47.8899 53.7486C47.8047 53.9053 47.6612 54.0221 47.4905 54.0739C45.806 54.5919 41.7099 56.2105 38.9852 60.2681H38.8013V79.9894C39.0841 79.9956 39.3672 80.0001 39.6516 80.0001C45.515 80.0001 51.0694 78.6805 56.0363 76.3237V60.3011H56.0361Z" fill="#D3DCFB"/>
<path d="M40.8108 53.2272C42.7577 50.3783 45.6605 45.6048 47.3805 40.3056C47.4916 39.9631 47.9005 39.8239 48.1972 40.028L50.6056 41.6845C50.8946 41.8833 51.1365 42.143 51.3141 42.4454C51.4917 42.7478 51.6009 43.0855 51.6337 43.4347L52.2027 49.4653C52.214 49.5856 52.2001 49.707 52.1618 49.8217C52.1236 49.9363 52.0618 50.0417 51.9804 50.1311C51.8991 50.2205 51.7999 50.2919 51.6894 50.3408C51.5788 50.3896 51.4593 50.4148 51.3384 50.4148H48.4914C47.9167 50.4148 47.5008 50.9631 47.6555 51.5166L48.1227 53.187C48.1838 53.4046 48.1576 53.6375 48.0495 53.836C47.9414 54.0345 47.76 54.183 47.5441 54.2497C45.7634 54.7973 41.4711 56.5144 38.8008 60.8966V59.7333C38.8004 57.4117 39.501 55.144 40.8108 53.2272Z" fill="#E9EFFF"/>
<path d="M49.558 20.5005C49.443 20.2005 49.298 19.8964 49.1154 19.6098C48.806 19.1244 48.6697 18.5501 48.7113 17.9776C48.8305 16.3309 48.7666 13.1101 46.6049 12.1375C44.7683 11.3111 42.5155 11.7895 41.0788 12.2673C40.3625 12.5047 39.5984 12.5605 38.8552 12.43C37.5046 13.8003 37.4776 16.3867 37.5819 17.8081C37.6258 18.3908 37.4802 18.9721 37.1669 19.4653C36.9857 19.7497 36.8407 20.0506 36.7247 20.3484C36.3486 21.3147 36.239 22.3628 36.3799 23.3889L36.9033 27.2011C36.9033 32.6817 39.829 36.4069 42.3174 38.3394C42.5172 38.4945 42.7269 38.6342 42.9404 38.7669C43.3442 38.5614 43.7278 38.3183 44.086 38.0408C46.5161 36.1537 49.373 32.5161 49.373 27.1642L49.8841 23.4423C50.0202 22.4501 49.9169 21.4367 49.558 20.5005Z" fill="#FFC7AB"/>
<path d="M42.3382 38.0406C39.9081 36.1536 37.0512 32.5159 37.0512 27.1641L36.5401 23.4414C36.4024 22.4394 36.5096 21.4159 36.877 20.4723C36.9902 20.1814 37.1318 19.8875 37.3088 19.6098C37.6146 19.1281 37.7567 18.5605 37.714 17.9916C37.6051 16.5084 37.6424 13.7259 39.247 12.4819C38.8912 12.4515 38.5403 12.3795 38.2013 12.2672C36.7646 11.7894 34.5118 11.3109 32.6752 12.1373C30.5073 13.1128 30.4491 16.3492 30.5698 17.9916C30.6125 18.5605 30.4704 19.1281 30.1646 19.6098C29.9877 19.8875 29.8462 20.1814 29.7329 20.4723C29.3656 21.4159 29.2585 22.4394 29.396 23.4414L29.9071 27.1641C29.9071 32.5159 32.764 36.1536 35.1941 38.0406C36.4663 39.0268 38.0305 39.5616 39.6401 39.5606C40.892 39.5605 42.1225 39.2366 43.2123 38.6205C42.9071 38.4489 42.615 38.2551 42.3382 38.0406Z" fill="#FFAA7B"/>
<path d="M27.8021 63.2436C27.2849 63.2436 26.8618 62.8205 26.8618 62.3033V58.5013C26.8618 57.9841 27.2849 57.5609 27.8021 57.5609C28.3193 57.5609 28.7424 57.9841 28.7424 58.5013V62.3033C28.7426 62.8205 28.3193 63.2436 27.8021 63.2436Z" fill="#FF4155"/>
<path d="M30.6438 60.4022C30.6438 60.9194 30.2206 61.3425 29.7034 61.3425H25.9013C25.3841 61.3425 24.9609 60.9194 24.9609 60.4022C24.9609 59.885 25.3841 59.4619 25.9013 59.4619H29.7034C30.2206 59.4619 30.6438 59.885 30.6438 60.4022Z" fill="#FF7186"/>
<path d="M59.9316 64.4287C59.9316 62.1364 59.0885 60.5111 58.1643 59.4181C57.36 58.4672 55.8018 59.0558 55.8018 60.3011V76.4333C57.2231 75.7711 58.6024 75.022 59.9318 74.1905L59.9316 64.4287Z" fill="#BEC8F7"/>
</g>
<defs>
<clipPath id="clip0_21980_4808">
<rect width="80" height="80" fill="white"/>
</clipPath>
</defs>
</svg>
