<svg width="80" height="80" viewBox="0 0 80 80" fill="none" xmlns="http://www.w3.org/2000/svg">
<path d="M55.7345 53.0402L53.2657 52.533C60.5299 49.6631 63.577 44.3406 62.0881 37.0256L61.9557 36.3756C59.8824 26.1789 58.0845 17.3531 52.9213 12.2506L53.9331 6.52781C53.9534 6.41283 53.9412 6.29444 53.8977 6.18608C53.8542 6.07771 53.7812 5.98369 53.687 5.91469C50.3159 3.44656 45.3273 2.03125 40.0001 2.03125C34.6846 2.03125 29.7032 3.44656 26.3323 5.91422C26.2381 5.98322 26.1651 6.07724 26.1216 6.18561C26.0781 6.29397 26.0658 6.41236 26.0862 6.52734L27.0953 12.2344C21.9193 17.3355 20.1201 26.1695 18.0445 36.3775L17.9126 37.0256C16.4242 44.3381 19.4768 49.66 26.7515 52.5325L24.2828 53.0405C19.6301 54.0092 14.6587 57.0769 14.6587 62.7787V77.3438C14.6587 77.5095 14.7245 77.6685 14.8417 77.7857C14.959 77.9029 15.1179 77.9688 15.2837 77.9688H64.7159C64.8816 77.9688 65.0406 77.9029 65.1578 77.7857C65.275 77.6685 65.3409 77.5095 65.3409 77.3438V62.7787C65.3409 57.0798 60.3793 54.0116 55.7345 53.0402Z" fill="#FFD4CF"/>
<path d="M55.7343 53.0402L51.4029 52.1525L51.6779 58.5844C51.7265 58.7365 51.715 58.9014 51.6458 59.0452C51.5766 59.1891 51.455 59.3011 51.3059 59.3581L47.9179 60.6534L47.9823 63.4536C47.9854 63.5883 47.945 63.7203 47.867 63.8302C47.7889 63.94 47.6775 64.0216 47.5493 64.063L40 65.7239L32.4511 64.0625C32.3229 64.0211 32.2115 63.9395 32.1335 63.8296C32.0555 63.7198 32.0151 63.5878 32.0182 63.4531L32.0826 60.653L28.6946 59.3577C28.5455 59.3006 28.4239 59.1887 28.3547 59.0448C28.2855 58.9009 28.2739 58.736 28.3225 58.5839L28.5975 52.152L24.2832 53.04C19.6306 54.0088 14.6592 57.0764 14.6592 62.7783V77.3438C14.6592 77.5095 14.725 77.6685 14.8422 77.7857C14.9594 77.9029 15.1184 77.9688 15.2842 77.9688H64.7157C64.8815 77.9688 65.0405 77.9029 65.1577 77.7857C65.2749 77.6685 65.3407 77.5095 65.3407 77.3438V62.7788C65.3407 57.0798 60.3792 54.0116 55.7343 53.0402Z" fill="#64B9FC"/>
<path d="M55.7344 53.0402L55.0817 52.9064C58.3897 54.542 61.1227 57.475 61.1227 61.9376V77.3087C61.1271 77.479 61.0638 77.6442 60.9466 77.7678C60.8295 77.8915 60.668 77.9636 60.4977 77.9683H64.7164C64.8822 77.9683 65.0412 77.9024 65.1584 77.7852C65.2756 77.668 65.3414 77.509 65.3414 77.3433V62.7787C65.3408 57.0798 60.3792 54.0116 55.7344 53.0402ZM57.7749 77.9687C58.1486 75.7885 58.0439 73.553 57.468 71.4172C57.4279 71.2564 57.3562 71.1052 57.2571 70.9724C57.1581 70.8396 57.0336 70.7278 56.8909 70.6436C56.7483 70.5593 56.5903 70.5042 56.4261 70.4816C56.262 70.4589 56.095 70.4691 55.9348 70.5116C55.7747 70.554 55.6246 70.6279 55.4932 70.7289C55.3619 70.8299 55.2519 70.956 55.1697 71.0999C55.0876 71.2438 55.0348 71.4026 55.0146 71.567C54.9943 71.7315 55.007 71.8983 55.0517 72.0578C55.5762 73.9866 55.6364 76.0122 55.2274 77.9687H57.7749ZM24.9482 72.0578C24.992 71.8986 25.0039 71.7322 24.9831 71.5684C24.9623 71.4045 24.9092 71.2464 24.8269 71.1032C24.7447 70.96 24.6348 70.8345 24.5038 70.734C24.3727 70.6335 24.223 70.5599 24.0634 70.5176C23.9037 70.4753 23.7373 70.465 23.5736 70.4874C23.41 70.5098 23.2524 70.5644 23.11 70.648C22.9676 70.7317 22.8431 70.8427 22.7439 70.9747C22.6446 71.1067 22.5725 71.2571 22.5317 71.4172C21.9547 73.5531 21.8551 75.79 22.2402 77.9687H24.7903C24.365 76.0146 24.4191 73.9865 24.9482 72.0578Z" fill="#4FADED"/>
<path d="M53.6865 5.91422C50.3159 3.44656 45.3273 2.03125 40.0001 2.03125C34.6847 2.03125 29.7033 3.44656 26.3323 5.91422C26.2381 5.98322 26.1651 6.07724 26.1216 6.18561C26.0781 6.29397 26.0659 6.41236 26.0862 6.52734L27.8184 16.3242C27.8356 16.421 27.8754 16.5124 27.9345 16.591C27.9936 16.6696 28.0705 16.7331 28.1588 16.7763C28.2471 16.8196 28.3444 16.8414 28.4427 16.84C28.541 16.8386 28.6376 16.814 28.7247 16.7683C32.3104 14.8777 47.7076 14.8777 51.2929 16.7683C51.38 16.8142 51.4767 16.8389 51.5751 16.8404C51.6735 16.8419 51.7709 16.8201 51.8593 16.7768C51.9477 16.7335 52.0247 16.67 52.0839 16.5913C52.1431 16.5127 52.1828 16.4212 52.2 16.3242L53.932 6.52734C53.9524 6.41242 53.9403 6.29407 53.8969 6.18571C53.8535 6.07735 53.7806 5.9833 53.6865 5.91422Z" fill="#E9F1F3"/>
<path d="M62.0874 37.0256L61.9551 36.3756C59.8818 26.1789 58.0838 17.3531 52.9207 12.2506L52.2004 16.3247C52.1833 16.4216 52.1435 16.5131 52.0843 16.5918C52.0251 16.6704 51.9482 16.734 51.8598 16.7773C51.7714 16.8205 51.674 16.8423 51.5755 16.8409C51.4771 16.8394 51.3804 16.8147 51.2934 16.7687C47.7081 14.8781 32.3109 14.8781 28.7251 16.7687C28.6381 16.8145 28.5414 16.8391 28.4431 16.8405C28.3448 16.8419 28.2475 16.8201 28.1592 16.7768C28.0709 16.7335 27.9941 16.67 27.9349 16.5915C27.8758 16.5129 27.836 16.4215 27.8188 16.3247L27.0951 12.2344C21.9191 17.3355 20.1199 26.1695 18.0443 36.3775L17.9124 37.0256C16.4238 44.3381 19.4813 49.6592 26.7582 52.5309L34.0107 51.0383V47.3989C32.001 46.3134 30.3221 44.7048 29.1516 42.7433C27.9811 40.7818 27.3627 38.5404 27.3617 36.2563V36.1736H26.6642C25.6315 36.1687 24.643 35.7537 23.9163 35.02C23.1896 34.2863 22.7841 33.2939 22.789 32.2613C22.7939 31.2286 23.2089 30.2401 23.9426 29.5134C24.6763 28.7867 25.6687 28.3812 26.7013 28.3861H27.9999C32.9043 28.3223 34.7535 26.7806 36.8946 24.9955C39.0748 23.1777 41.546 21.1175 47.4884 20.2348C47.6166 20.2156 47.7476 20.2368 47.8632 20.2954C47.9788 20.3541 48.0732 20.4474 48.1334 20.5622C48.7734 21.7779 49.5302 22.9284 50.3932 23.9973C51.376 25.2648 52.1182 26.2227 52.4557 28.3859H53.3168C54.3495 28.3826 55.3412 28.7896 56.0738 29.5175C56.8064 30.2454 57.2198 31.2344 57.2231 32.2671C57.2265 33.2998 56.8194 34.2915 56.0916 35.0241C55.3637 35.7567 54.3747 36.1701 53.342 36.1734H52.6562V36.2561C52.6545 38.543 52.0337 40.7868 50.8597 42.7493C49.6858 44.7119 48.0025 46.3201 45.9884 47.4033V51.038L53.2574 52.5314C60.5248 49.6622 63.5765 44.3416 62.0874 37.0256Z" fill="#748E99"/>
<path d="M42.1978 7.68297H41.25V6.73515C41.25 6.40363 41.1183 6.08569 40.8839 5.85127C40.6495 5.61685 40.3315 5.48515 40 5.48515C39.6685 5.48515 39.3506 5.61685 39.1161 5.85127C38.8817 6.08569 38.75 6.40363 38.75 6.73515V7.68297H37.8208C37.6566 7.68297 37.4941 7.7153 37.3424 7.77812C37.1908 7.84093 37.053 7.93301 36.9369 8.04908C36.8208 8.16516 36.7288 8.30295 36.666 8.45461C36.6031 8.60627 36.5708 8.76881 36.5708 8.93297C36.5708 9.09712 36.6031 9.25966 36.666 9.41132C36.7288 9.56298 36.8208 9.70078 36.9369 9.81685C37.053 9.93292 37.1908 10.025 37.3424 10.0878C37.4941 10.1506 37.6566 10.183 37.8208 10.183H38.75V11.1308C38.75 11.4623 38.8817 11.7802 39.1161 12.0147C39.3506 12.2491 39.6685 12.3808 40 12.3808C40.3315 12.3808 40.6495 12.2491 40.8839 12.0147C41.1183 11.7802 41.25 11.4623 41.25 11.1308V10.183H42.1978C42.5294 10.183 42.8473 10.0513 43.0817 9.81685C43.3161 9.58243 43.4478 9.26449 43.4478 8.93297C43.4478 8.60144 43.3161 8.2835 43.0817 8.04908C42.8473 7.81466 42.5294 7.68297 42.1978 7.68297Z" fill="#FB4A59"/>
<path d="M54.1365 67.9219H48.9399C48.6084 67.9219 48.2905 67.7902 48.0561 67.5558C47.8216 67.3213 47.6899 67.0034 47.6899 66.6719C47.6899 66.3404 47.8216 66.0224 48.0561 65.788C48.2905 65.5536 48.6084 65.4219 48.9399 65.4219H54.1365C54.468 65.4219 54.786 65.5536 55.0204 65.788C55.2548 66.0224 55.3865 66.3404 55.3865 66.6719C55.3865 67.0034 55.2548 67.3213 55.0204 67.5558C54.786 67.7902 54.468 67.9219 54.1365 67.9219Z" fill="#E9F1F3"/>
<path d="M40 65.7239L32.4511 64.0625C32.323 64.0211 32.2116 63.9394 32.1336 63.8296C32.0556 63.7198 32.0152 63.5878 32.0183 63.4531L32.0827 60.653L28.6947 59.3577C28.5456 59.3006 28.424 59.1887 28.3547 59.0448C28.2855 58.9009 28.274 58.736 28.3225 58.5839L28.5975 52.152L30.5329 51.7536L40 63.0209V65.7239Z" fill="#95CFEF"/>
<path d="M40 65.7239L47.5488 64.0625C47.677 64.0211 47.7884 63.9395 47.8664 63.8297C47.9444 63.7199 47.9849 63.5878 47.9817 63.4531L47.9173 60.653L51.3052 59.3577C51.4543 59.3006 51.5759 59.1887 51.6451 59.0448C51.7144 58.9009 51.7259 58.736 51.6773 58.5839L51.4023 52.152L49.4672 51.7536L40 63.0209V65.7239Z" fill="#87CAE8"/>
<path d="M40 65.7239L38.75 65.4488V77.9688H41.25V65.4488L40 65.7239Z" fill="#4FADED"/>
<path d="M27.3618 31.5255C27.3618 30.4686 27.3654 29.1653 27.3825 28.9592C27.3954 28.8044 27.4655 28.6599 27.5792 28.5539C27.6928 28.448 27.8419 28.3881 27.9972 28.3861H26.7015C25.6688 28.3812 24.6764 28.7867 23.9427 29.5134C23.209 30.2401 22.794 31.2286 22.7891 32.2612C22.7842 33.2939 23.1897 34.2863 23.9164 35.02C24.6431 35.7537 25.6316 36.1687 26.6643 36.1736H27.3618V31.5255ZM53.3172 28.3861H52.4561C52.603 29.4259 52.6699 30.4754 52.6563 31.5255V36.1736H53.3418C54.3744 36.1703 55.3635 35.7568 56.0914 35.0242C56.8192 34.2917 57.2263 33.2999 57.2229 32.2673C57.2196 31.2346 56.8062 30.2455 56.0736 29.5177C55.341 28.7898 54.3493 28.3828 53.3166 28.3861H53.3172Z" fill="#F9C9C5"/>
<path d="M50.3937 23.9975C49.5307 22.9286 48.7738 21.7781 48.1338 20.5625C48.0737 20.4477 47.9793 20.3544 47.8637 20.2958C47.7481 20.2371 47.617 20.2159 47.4888 20.2352C46.7519 20.3435 46.0196 20.4811 45.2935 20.6477C45.7209 21.3316 46.1179 21.877 46.4874 22.3845C47.8506 24.2562 48.7509 25.4927 48.7509 30.4002V35.4375C48.7509 42.1706 44.0893 47.7656 38.022 48.7578C39.829 49.0444 41.6767 48.9356 43.4376 48.4391C45.1986 47.9425 46.8309 47.07 48.222 45.8816C49.6131 44.6932 50.73 43.2173 51.4955 41.5556C52.2611 39.8939 52.6572 38.0859 52.6565 36.2562V31.5255C52.6565 26.9167 51.7568 25.7553 50.3937 23.9975Z" fill="#F9C9C5"/>
<path d="M53.6867 5.91421C52.8364 5.29811 51.93 4.76326 50.9797 4.31671C50.9826 4.33234 53.0345 15.1797 40.1948 15.3506C44.8783 15.3628 49.5244 15.835 51.2937 16.7683C51.3808 16.8142 51.4775 16.8389 51.5759 16.8404C51.6743 16.8419 51.7717 16.8201 51.8601 16.7768C51.9485 16.7335 52.0255 16.67 52.0847 16.5913C52.1438 16.5127 52.1836 16.4211 52.2008 16.3242L53.9328 6.52734C53.9531 6.41235 53.9409 6.29397 53.8974 6.1856C53.8539 6.07723 53.7809 5.98322 53.6867 5.91421Z" fill="#D1D9DB"/>
<path d="M62.0878 37.0256L61.9555 36.3756C59.9142 26.3366 58.1375 17.6291 53.1556 12.4922L52.8559 12.6183L52.2008 16.3242C52.1836 16.4212 52.1439 16.5127 52.0847 16.5913C52.0255 16.67 51.9485 16.7335 51.8601 16.7768C51.7717 16.8201 51.6743 16.8419 51.5759 16.8404C51.4775 16.8389 51.3808 16.8142 51.2937 16.7683C50.2542 16.22 48.2209 15.8308 45.7714 15.6008C43.3219 15.3708 43.7569 17.2623 45.2936 20.6477C45.9695 20.4914 46.6975 20.3527 47.4889 20.2352C47.6171 20.2159 47.7481 20.2371 47.8637 20.2958C47.9793 20.3544 48.0737 20.4477 48.1339 20.5625C48.7739 21.7782 49.5307 22.9287 50.3937 23.9977C51.3765 25.2652 52.1187 26.223 52.4562 28.3862H53.3173C54.35 28.3829 55.3417 28.7899 56.0743 29.5178C56.8069 30.2457 57.2203 31.2347 57.2237 32.2674C57.227 33.3001 56.82 34.2918 56.0921 35.0244C55.3642 35.757 54.3752 36.1704 53.3425 36.1737H52.6565V36.2564C52.6548 38.5433 52.034 40.7871 50.8601 42.7497C49.6862 44.7122 48.0028 46.3204 45.9887 47.4036V51.0383L53.2578 52.5317C60.5251 49.6622 63.5769 44.3416 62.0878 37.0256Z" fill="#6A8993"/>
</svg>
