<svg width="80" height="80" viewBox="0 0 80 80" fill="none" xmlns="http://www.w3.org/2000/svg">
<path d="M18.7562 42.5016C16.6214 42.4998 14.5072 42.9189 12.5345 43.735C10.5619 44.551 8.76948 45.7481 7.25994 47.2577C5.75041 48.7672 4.55334 50.5596 3.73725 52.5322C2.92116 54.5049 2.50205 56.6191 2.50392 58.7539V76.244C2.50266 76.5753 2.63271 76.8935 2.8656 77.129C3.09849 77.3646 3.41523 77.4982 3.74646 77.5007H56.2546C56.5858 77.4982 56.9026 77.3646 57.1354 77.129C57.3683 76.8935 57.4984 76.5753 57.4971 76.244V58.7492C57.4984 56.6148 57.0788 54.5011 56.2624 52.5289C55.4461 50.5568 54.2489 48.765 52.7394 47.256C51.23 45.7469 49.4378 44.5503 47.4654 43.7345C45.4931 42.9187 43.3792 42.4998 41.2448 42.5016H18.7562Z" fill="#FF6B6B"/>
<path d="M48.7521 69.9888V77.5007H56.2546C56.9444 77.5007 57.5019 76.9338 57.4971 76.244V69.9888H48.7521ZM11.249 69.9888V77.5007H3.74646C3.41523 77.4982 3.09849 77.3646 2.8656 77.129C2.63271 76.8935 2.50266 76.5752 2.50392 76.244V69.9888H11.249Z" fill="#FDD5A6"/>
<path d="M62.505 35.0038V53.7554C62.5101 54.2492 62.4165 54.739 62.2297 55.1962C62.0429 55.6533 61.7667 56.0686 61.4173 56.4176C61.0679 56.7665 60.6523 57.0422 60.1949 57.2284C59.7376 57.4146 59.2476 57.5076 58.7538 57.5019H41.2495V60.0012H58.7538C62.198 60.0012 65.0043 57.1948 65.0043 53.7554V34.9991L62.505 35.0038Z" fill="#C8D4D9"/>
<path d="M22.498 36.2558V43.7489C22.498 43.8812 22.5217 44.0135 22.5642 44.1457C22.5642 44.1457 22.9799 45.3741 24.1138 46.508C25.2477 47.6419 27.1848 48.7474 30.0006 48.7474C32.8116 48.7474 34.7534 47.6419 35.8873 46.508C37.0212 45.3741 37.4369 44.1457 37.4369 44.1457C37.4801 44.0179 37.5025 43.8839 37.5031 43.7489V36.2558H22.498Z" fill="#FDCE97"/>
<path d="M30.0006 2.49927C26.0226 2.50427 22.2089 4.08676 19.396 6.89966C16.5831 9.71256 15.0006 13.5262 14.9956 17.5043C14.9956 19.498 15.3216 21.6193 15.8555 23.7501H44.1458C44.6844 21.6241 45.0056 19.498 45.0056 17.5043C45.0006 13.5262 43.4182 9.71256 40.6053 6.89966C37.7923 4.08676 33.9787 2.50427 30.0006 2.49927Z" fill="#33658A"/>
<path d="M19.9987 23.2068C17.3105 21.317 13.7529 23.3438 13.7529 26.2304C13.7529 30.1045 16.8947 32.4999 19.9987 32.4999V23.2068ZM40.0023 23.2068C42.6952 21.317 46.2528 23.3438 46.2528 26.2304C46.2528 30.1045 43.1063 32.4999 40.007 32.4999L40.0023 23.2068Z" fill="#FDCE97"/>
<path d="M32.4384 16.2523C32.1872 16.2647 31.9456 16.3525 31.7451 16.5042C31.5445 16.6559 31.3943 16.8644 31.3139 17.1027C31.3139 17.1027 30.4163 19.9941 27.5013 19.9941H19.9987C19.8343 19.9947 19.6716 20.0277 19.52 20.0912C19.3683 20.1547 19.2306 20.2474 19.1148 20.3641C18.999 20.4808 18.9073 20.6192 18.845 20.7713C18.7826 20.9235 18.7509 21.0864 18.7515 21.2508V28.7533C18.7515 31.7367 19.9366 34.598 22.0462 36.7076C24.1558 38.8172 27.0171 40.0024 30.0005 40.0024C32.9839 40.0024 35.8452 38.8172 37.9548 36.7076C40.0644 34.598 41.2496 31.7367 41.2496 28.7533V21.2508C41.2502 21.0864 41.2184 20.9235 41.1561 20.7713C41.0937 20.6192 41.002 20.4808 40.8862 20.3641C40.7704 20.2474 40.6327 20.1547 40.481 20.0912C40.3294 20.0277 40.1667 19.9947 40.0023 19.9941H37.503C34.588 19.9941 33.6809 17.1074 33.6809 17.1074C33.5957 16.8483 33.4283 16.6241 33.204 16.4689C32.9797 16.3137 32.7109 16.236 32.4384 16.2476V16.2523Z" fill="#FDD5A6"/>
<path d="M37.5029 53.7554C34.758 53.7554 32.5044 55.9995 32.5044 58.7445C32.5044 61.4894 34.758 63.7477 37.5029 63.7477C40.2526 63.7477 42.4967 61.4941 42.4967 58.7445C42.4967 55.9948 40.2526 53.7554 37.5029 53.7554Z" fill="#DBE9EE"/>
<path d="M37.5028 56.2452C38.9012 56.2452 40.0068 57.3507 40.0068 58.7492C40.0068 60.1429 38.9012 61.2485 37.5028 61.2485C37.1735 61.251 36.847 61.1879 36.5423 61.0629C36.2376 60.9379 35.9609 60.7535 35.7282 60.5204C35.4956 60.2873 35.3117 60.0102 35.1873 59.7053C35.0628 59.4004 35.0004 59.0738 35.0035 58.7445C35.0035 57.3507 36.1043 56.2452 37.5028 56.2452Z" fill="#C8D4D9"/>
<path d="M53.7555 9.99706C52.7613 10.0033 51.8095 10.401 51.1065 11.104C50.4034 11.807 50.0057 12.7588 49.9995 13.753V22.4981C49.9995 26.1456 51.4485 29.6438 54.0277 32.2229C56.6069 34.8021 60.105 36.2511 63.7525 36.2511C67.4001 36.2511 70.8982 34.8021 73.4774 32.2229C76.0566 29.6438 77.5056 26.1456 77.5056 22.4981V13.753C77.4994 12.7588 77.1017 11.807 76.3986 11.104C75.6956 10.401 74.7438 10.0033 73.7496 9.99706H71.2456V12.501H73.7496C73.9153 12.4972 74.08 12.5269 74.2339 12.5884C74.3878 12.6499 74.5277 12.7419 74.6451 12.8589C74.7625 12.9758 74.8551 13.1154 74.9171 13.269C74.9792 13.4227 75.0095 13.5873 75.0063 13.753V22.4981C75.0063 28.7533 69.9983 33.7471 63.7478 33.7471C57.4973 33.7471 52.5035 28.7533 52.5035 22.5028V13.7483C52.4996 13.5826 52.5294 13.4179 52.5908 13.264C52.6523 13.1101 52.7443 12.9702 52.8613 12.8528C52.9783 12.7354 53.1178 12.6428 53.2715 12.5808C53.4251 12.5187 53.5898 12.4884 53.7555 12.4916H56.2548V9.98761L53.7555 9.99706Z" fill="#DBE9EE"/>
<path d="M56.2356 7.47889C56.0704 7.48073 55.9072 7.51526 55.7553 7.58048C55.6035 7.64571 55.4661 7.74034 55.351 7.85892C55.236 7.97751 55.1455 8.11769 55.0849 8.2714C55.0243 8.42511 54.9947 8.5893 54.9978 8.75451V13.7483C54.9978 14.0804 55.1297 14.3988 55.3645 14.6336C55.5993 14.8684 55.9177 15.0003 56.2498 15.0003C56.5818 15.0003 56.9003 14.8684 57.1351 14.6336C57.3699 14.3988 57.5018 14.0804 57.5018 13.7483V8.74978C57.5049 8.58219 57.4744 8.41567 57.412 8.26009C57.3497 8.10451 57.2567 7.96305 57.1386 7.84408C57.0205 7.72511 56.8797 7.63107 56.7246 7.56753C56.5695 7.50399 56.4032 7.47696 56.2356 7.47889ZM71.2312 7.47889C71.0667 7.48196 70.9045 7.5174 70.7538 7.58317C70.6031 7.64895 70.4668 7.74377 70.3527 7.86223C70.2387 7.98069 70.149 8.12046 70.089 8.27356C70.029 8.42666 69.9997 8.59008 70.0028 8.75451V13.7483C70.0028 14.0804 70.1347 14.3988 70.3695 14.6336C70.6043 14.8684 70.9227 15.0003 71.2548 15.0003C71.5868 15.0003 71.9053 14.8684 72.1401 14.6336C72.3749 14.3988 72.5068 14.0804 72.5068 13.7483V8.74978C72.51 8.58138 72.4792 8.41407 72.4162 8.25785C72.3533 8.10164 72.2594 7.95974 72.1403 7.84064C72.0212 7.72154 71.8793 7.6277 71.7231 7.56473C71.5669 7.50176 71.3996 7.47568 71.2312 7.47889Z" fill="#C8D4D9"/>
</svg>
