<svg width="80" height="80" viewBox="0 0 80 80" fill="none" xmlns="http://www.w3.org/2000/svg">
<path d="M40.7473 19.0663V16.6584L31.6056 13.4391L22.4639 16.6584V19.0663C22.4639 20.3075 21.8029 21.4549 20.7292 22.0775C18.4541 23.3969 16.5656 25.2909 15.2528 27.5699C13.94 29.8488 13.249 32.4327 13.249 35.0627V66.1741C13.249 69.4113 15.8732 72.0356 19.1106 72.0356H44.1007C47.3379 72.0356 49.9623 69.4113 49.9623 66.1741V35.0627C49.9623 32.4327 49.2713 29.8489 47.9585 27.57C46.6457 25.2911 44.7572 23.3971 42.4821 22.0777C41.9545 21.7717 41.5165 21.3324 41.2121 20.8039C40.9076 20.2754 40.7473 19.6762 40.7473 19.0663Z" fill="url(#paint0_linear_21978_4667)"/>
<path d="M42.4824 22.0775C42.4462 22.0566 42.4116 22.0334 42.3763 22.0113C43.1224 23.9113 43.5238 25.9753 43.5238 28.0998V61.0067C43.5238 64.4308 40.8995 67.2066 37.6623 67.2066H13.3418C13.8298 69.9511 16.2262 72.0355 19.1109 72.0355H44.101C47.3382 72.0355 49.9626 69.4111 49.9626 66.1739V35.0625C49.9625 32.4325 49.2715 29.8487 47.9587 27.5698C46.6459 25.291 44.7575 23.397 42.4824 22.0775Z" fill="url(#paint1_linear_21978_4667)"/>
<path d="M43.2454 16.9803H19.9657C19.6472 16.9803 19.3417 16.8537 19.1165 16.6285C18.8912 16.4032 18.7647 16.0978 18.7646 15.7792V9.16563C18.7647 8.8471 18.8912 8.54162 19.1165 8.31638C19.3417 8.09114 19.6472 7.96458 19.9657 7.96454H43.2454C43.564 7.96458 43.8694 8.09114 44.0947 8.31638C44.3199 8.54162 44.4465 8.8471 44.4465 9.16563V15.7794C44.4465 15.9371 44.4155 16.0933 44.3551 16.239C44.2947 16.3847 44.2063 16.5171 44.0947 16.6286C43.9832 16.7401 43.8508 16.8286 43.7051 16.8889C43.5593 16.9493 43.4032 16.9803 43.2454 16.9803Z" fill="#A79BA7"/>
<path d="M43.2095 7.96454H39.6178V11.558C39.6178 11.8861 39.4874 12.2008 39.2553 12.4329C39.0233 12.6649 38.7086 12.7953 38.3804 12.7953H18.7651V15.7431C18.7652 16.0713 18.8956 16.386 19.1276 16.618C19.3596 16.8501 19.6743 16.9804 20.0025 16.9805H43.2095C43.5377 16.9804 43.8524 16.8501 44.0844 16.618C44.3164 16.386 44.4468 16.0713 44.4469 15.7431V9.20188C44.4469 9.03939 44.4149 8.87848 44.3527 8.72835C44.2905 8.57822 44.1994 8.4418 44.0845 8.3269C43.9696 8.212 43.8332 8.12086 43.683 8.05868C43.5329 7.99651 43.372 7.96452 43.2095 7.96454Z" fill="#918291"/>
<path d="M13.249 36.5205H49.9622V59.3363H13.249V36.5205Z" fill="#62DBFB"/>
<path d="M43.5239 36.5205H49.9625V59.3363H43.5239V36.5205Z" fill="#01D0FB"/>
<path d="M40.7176 32.6658H36.7051C36.4139 32.6658 36.1347 32.5502 35.9289 32.3443C35.723 32.1385 35.6074 31.8593 35.6074 31.5682V27.5555C35.6074 27.4114 35.579 27.2686 35.5238 27.1354C35.4687 27.0023 35.3878 26.8813 35.2859 26.7793C35.184 26.6774 35.063 26.5966 34.9298 26.5414C34.7966 26.4862 34.6539 26.4578 34.5097 26.4578H28.7015C28.4103 26.4578 28.1312 26.5735 27.9253 26.7793C27.7195 26.9852 27.6038 27.2644 27.6038 27.5555V31.5682C27.6038 31.7123 27.5754 31.855 27.5203 31.9882C27.4651 32.1214 27.3842 32.2424 27.2823 32.3443C27.1804 32.4462 27.0594 32.5271 26.9262 32.5823C26.793 32.6374 26.6503 32.6658 26.5062 32.6658H22.4937C22.2025 32.6658 21.9233 32.7815 21.7175 32.9873C21.5116 33.1932 21.396 33.4724 21.396 33.7635V39.5717C21.396 39.8629 21.5116 40.1421 21.7175 40.3479C21.9233 40.5538 22.2025 40.6694 22.4937 40.6694H26.5062C26.7973 40.6694 27.0765 40.785 27.2823 40.9909C27.4882 41.1967 27.6038 41.4759 27.6038 41.7671V45.7796C27.6038 46.0707 27.7195 46.3499 27.9253 46.5557C28.1312 46.7616 28.4103 46.8772 28.7015 46.8772H34.5097C34.6539 46.8772 34.7966 46.8488 34.9298 46.7937C35.063 46.7385 35.184 46.6576 35.2859 46.5557C35.3878 46.4538 35.4687 46.3328 35.5238 46.1996C35.579 46.0664 35.6074 45.9237 35.6074 45.7796V41.7671C35.6074 41.4759 35.723 41.1967 35.9289 40.9909C36.1347 40.785 36.4139 40.6694 36.7051 40.6694H40.7176C41.0087 40.6694 41.2879 40.5538 41.4937 40.3479C41.6996 40.1421 41.8152 39.8629 41.8152 39.5717V33.7635C41.8152 33.4724 41.6996 33.1932 41.4937 32.9873C41.2879 32.7815 41.0087 32.6658 40.7176 32.6658Z" fill="#FFD15B"/>
<path d="M66.1951 42.8374C66.1951 37.4458 61.8243 33.075 56.4328 33.075C51.0412 33.075 46.6704 37.4458 46.6704 42.8374V50.9016C46.6704 51.8147 47.4107 52.555 48.3238 52.555L56.4328 54.1647L64.5417 52.555C65.4548 52.555 66.1951 51.8147 66.1951 50.9016V42.8374Z" fill="#FD8087"/>
<path d="M56.4331 33.0761C55.5996 33.0761 54.7909 33.1811 54.0186 33.3777C58.2421 34.4524 61.3664 38.2804 61.3664 42.8385V50.9027C61.3664 51.816 60.6261 52.5561 59.7129 52.5561L62.4886 54.1658L64.5418 52.5561C65.455 52.5561 66.1953 51.816 66.1953 50.9027V42.8385C66.1954 37.4468 61.8246 33.0761 56.4331 33.0761Z" fill="#FE646F"/>
<path d="M13.802 72.0351C21.4247 72.0351 27.6041 65.8557 27.6041 58.2331C27.6041 50.6104 21.4247 44.4311 13.802 44.4311C6.17938 44.4311 0 50.6104 0 58.2331C0 65.8557 6.17938 72.0351 13.802 72.0351Z" fill="#46CC8D"/>
<path d="M13.8019 66.6123C18.4293 66.6123 22.1805 62.8611 22.1805 58.2338C22.1805 53.6064 18.4293 49.8552 13.8019 49.8552C9.17456 49.8552 5.42334 53.6064 5.42334 58.2338C5.42334 62.8611 9.17456 66.6123 13.8019 66.6123Z" fill="#CEEFDD"/>
<path d="M17.7578 50.8462C18.5217 52.1097 18.9615 53.5908 18.9615 55.1748C18.9615 59.8022 15.2103 63.5534 10.5829 63.5534C9.20267 63.5553 7.84354 63.2145 6.62744 62.5617C8.09494 64.989 10.7588 66.6119 13.8023 66.6119C18.4296 66.6119 22.1809 62.8606 22.1809 58.2333C22.1809 55.0366 20.3903 52.2589 17.7578 50.8462Z" fill="#B9EACF"/>
<path d="M12.724 61.4992C12.4038 61.4992 12.0967 61.372 11.8703 61.1456L9.99028 59.2654C9.87817 59.1533 9.78925 59.0202 9.72859 58.8738C9.66792 58.7273 9.6367 58.5703 9.63672 58.4117C9.63673 58.2532 9.66798 58.0962 9.72867 57.9497C9.78936 57.8033 9.87831 57.6702 9.99044 57.5581C10.1025 57.446 10.2356 57.357 10.3821 57.2963C10.5286 57.2356 10.6856 57.2044 10.8441 57.2044C11.0027 57.2044 11.1597 57.2356 11.3061 57.2963C11.4526 57.357 11.5857 57.446 11.6978 57.5581L12.724 58.5845L15.9482 55.3603C16.0602 55.2473 16.1933 55.1575 16.34 55.0961C16.4867 55.0347 16.6441 55.0029 16.8032 55.0025C16.9622 55.0021 17.1197 55.0331 17.2668 55.0938C17.4138 55.1545 17.5473 55.2436 17.6598 55.3561C17.7723 55.4685 17.8614 55.6021 17.9221 55.7491C17.9828 55.8961 18.0139 56.0537 18.0135 56.2127C18.0131 56.3717 17.9813 56.5291 17.9199 56.6759C17.8585 56.8226 17.7687 56.9557 17.6557 57.0676L13.5778 61.1456C13.3513 61.372 13.0442 61.4992 12.724 61.4992Z" fill="#6ED5A1"/>
<path d="M48.3238 52.5549C47.4107 52.5549 46.6704 53.2953 46.6704 54.2084V62.2724C46.6704 67.6642 51.0412 72.0348 56.4328 72.0348C61.8243 72.0348 66.1951 67.664 66.1951 62.2724V54.2084C66.1951 53.2953 65.4548 52.5549 64.5417 52.5549H48.3238Z" fill="#FFE177"/>
<path d="M64.5418 52.5549H59.7129C60.6261 52.5549 61.3664 53.2952 61.3664 54.2085V62.2726C61.3664 66.8309 58.2421 70.6588 54.0186 71.7335C54.8077 71.9342 55.6188 72.0355 56.4331 72.0351C61.8246 72.0351 66.1954 67.6643 66.1954 62.2728V54.2087C66.1953 53.2952 65.455 52.5549 64.5418 52.5549Z" fill="#FFC344"/>
<path d="M69.5523 71.3613C75.3225 71.3613 80.0001 66.6836 80.0001 60.9135C80.0001 55.1433 75.3225 50.4657 69.5523 50.4657C63.7821 50.4657 59.1045 55.1433 59.1045 60.9135C59.1045 66.6836 63.7821 71.3613 69.5523 71.3613Z" fill="#99E6FC"/>
<path d="M74.3618 51.6386C75.5793 53.3471 76.2979 55.4357 76.2979 57.6935C76.2979 63.4636 71.6202 68.1413 65.8501 68.1413C64.1758 68.143 62.5258 67.7404 61.0405 66.9676C62.9346 69.6255 66.0397 71.3605 69.5522 71.3605C75.3224 71.3605 80.0001 66.6829 80.0001 60.9127C80.0001 56.8775 77.711 53.3791 74.3618 51.6386Z" fill="#62DBFB"/>
<path d="M63.1716 69.1833L77.7674 54.4622C77.2683 53.8274 76.6977 53.2522 76.0669 52.748L61.4424 67.498C61.9521 68.1244 62.5323 68.6899 63.1716 69.1833Z" fill="#01D0FB"/>
<path d="M64.317 68.0286C63.405 67.8938 62.515 67.6381 61.6706 67.2683L61.4438 67.4969C61.4656 67.5236 61.4878 67.5499 61.5096 67.5764C61.607 67.6936 61.7057 67.8095 61.8081 67.9224C61.8376 67.955 61.8682 67.9869 61.8982 68.0192C62.009 68.1384 62.1217 68.2559 62.2379 68.3697C62.2587 68.3902 62.2803 68.41 62.3012 68.4302C62.4292 68.5541 62.5604 68.6748 62.6946 68.792L62.7229 68.8161C62.8691 68.9427 63.0187 69.0653 63.1717 69.1838L64.317 68.0286ZM77.7663 54.4613C77.522 54.1508 77.2603 53.8544 76.9826 53.5734L76.9573 53.5475C76.8275 53.4174 76.6944 53.2907 76.5581 53.1675L76.4962 53.112C76.3623 52.9925 76.2254 52.8765 76.0856 52.7641C76.0793 52.7591 76.0728 52.7542 76.0665 52.7491L75.3884 53.4331C75.7657 54.2742 76.0291 55.1618 76.1717 56.0725L77.7678 54.4628C77.7672 54.4624 77.7667 54.4619 77.7663 54.4613Z" fill="#01C0FA"/>
<defs>
<linearGradient id="paint0_linear_21978_4667" x1="31.6057" y1="13.4391" x2="31.6057" y2="72.0356" gradientUnits="userSpaceOnUse">
<stop stop-color="white"/>
<stop offset="1" stop-color="#999999"/>
</linearGradient>
<linearGradient id="paint1_linear_21978_4667" x1="31.6522" y1="22.0113" x2="31.6522" y2="72.0355" gradientUnits="userSpaceOnUse">
<stop stop-color="white"/>
<stop offset="1" stop-color="#999999"/>
</linearGradient>
</defs>
</svg>
